<svg width="66" height="76" viewBox="0 0 66 76" fill="none" xmlns="http://www.w3.org/2000/svg">
<path d="M9.05542 49.3338L0.206186 64.6769C-0.218429 65.4123 0.0338783 66.3538 0.769263 66.7784C1.02772 66.9261 1.32311 66.9969 1.62003 66.9815L10.7708 66.4953L14.9293 74.6646C15.3139 75.42 16.24 75.7215 16.997 75.3369C17.2631 75.2015 17.4831 74.9923 17.6323 74.7338L25.7123 60.7261C18.9077 58.9661 13.0646 54.8676 9.05542 49.3353V49.3338ZM56.0308 49.2461C52.0508 54.7922 46.2077 58.9046 39.4185 60.6953L47.5262 74.7353C47.9523 75.4707 48.8923 75.723 49.6293 75.2984C49.8862 75.1492 50.0954 74.9292 50.2293 74.663L54.3877 66.4938L63.537 66.9799C64.3846 67.0261 65.1093 66.3738 65.1539 65.5246C65.1693 65.2276 65.1 64.9307 64.9508 64.6738L56.0308 49.2461Z" fill="#FF9C05"/>
<path d="M32.6354 61.5385C49.6288 61.5385 63.4047 47.7626 63.4047 30.7692C63.4047 13.7759 49.6288 0 32.6354 0C15.6421 0 1.86621 13.7759 1.86621 30.7692C1.86621 47.7626 15.6421 61.5385 32.6354 61.5385Z" fill="#FFB400"/>
<path d="M32.7434 54.1538C45.488 54.1538 55.8204 43.8215 55.8204 31.0769C55.8204 18.3323 45.488 8 32.7434 8C19.9988 8 9.6665 18.3323 9.6665 31.0769C9.6665 43.8215 19.9988 54.1538 32.7434 54.1538Z" stroke="#FAFAFA" stroke-opacity="0.5" stroke-linecap="round" stroke-dasharray="2 3"/>
</svg>
