<svg width="70" height="70" viewBox="0 0 70 70" fill="none" xmlns="http://www.w3.org/2000/svg">
<g clip-path="url(#clip0)">
<path d="M35.5118 1.71507L39.8029 0.0935953C40.2815 -0.0872829 40.8202 -0.00197067 41.2194 0.31795L44.7991 3.18616C45.0742 3.40655 45.4202 3.51907 45.7723 3.50239L50.3544 3.28624C50.8656 3.26218 51.3513 3.50977 51.6323 3.93743L54.1506 7.77142C54.3441 8.06604 54.6384 8.27987 54.9785 8.37284L59.4031 9.58307C59.8966 9.71815 60.2822 10.1036 60.4171 10.5971L61.6273 15.0217C61.7203 15.3617 61.9341 15.6561 62.2288 15.8495L66.0628 18.3679C66.4904 18.6489 66.738 19.1346 66.7139 19.6458L66.4978 24.2279C66.4812 24.5801 66.5936 24.926 66.814 25.2011L69.6822 28.781C70.0021 29.1804 70.0875 29.7189 69.9066 30.1976L68.2851 34.4886C68.1606 34.8182 68.1606 35.182 68.2851 35.5118L69.9066 39.8029C70.0875 40.2815 70.0021 40.8202 69.6822 41.2194L66.814 44.7994C66.5936 45.0744 66.4811 45.4205 66.4978 45.7725L66.7139 50.3546C66.738 50.8658 66.4904 51.3516 66.0628 51.6325L62.2288 54.1509C61.9341 54.3443 61.7203 54.6387 61.6273 54.9787L60.4171 59.4033C60.282 59.8969 59.8966 60.2824 59.4031 60.4174L54.9785 61.6276C54.6384 61.7206 54.3441 61.9344 54.1506 62.229L51.6323 66.063C51.3513 66.4907 50.8656 66.7383 50.3544 66.7142L45.7723 66.498C45.4203 66.4815 45.0742 66.5939 44.7991 66.8143L41.2191 69.6825C40.8198 70.0024 40.2812 70.0877 39.8026 69.9068L35.5116 68.2854C35.1819 68.1608 34.8181 68.1608 34.4884 68.2854L30.1973 69.9068C29.7187 70.0877 29.18 70.0024 28.7808 69.6825L25.2008 66.8143C24.9257 66.5939 24.5797 66.4814 24.2277 66.498L19.6455 66.7142C19.1344 66.7383 18.6486 66.4907 18.3676 66.063L15.8493 62.229C15.6558 61.9344 15.3615 61.7206 15.0215 61.6276L10.5969 60.4174C10.1033 60.2823 9.71775 59.8969 9.58281 59.4033L8.37258 54.9787C8.27962 54.6387 8.06579 54.3443 7.77116 54.1509L3.93717 51.6324C3.50952 51.3514 3.26192 50.8657 3.28598 50.3545L3.50213 45.7724C3.51881 45.4203 3.40629 45.0743 3.1859 44.7992L0.31824 41.219C-0.00168016 40.8196 -0.0869923 40.2811 0.0938859 39.8024L1.71536 35.5114C1.83991 35.1818 1.83991 34.818 1.71536 34.4882L0.0938859 30.1972C-0.0869923 29.7185 -0.00168016 29.1798 0.31824 28.7806L3.18645 25.2009C3.40684 24.9259 3.51936 24.5798 3.50268 24.2278L3.28653 19.6457C3.26247 19.1345 3.51006 18.6487 3.93772 18.3678L7.77171 15.8494C8.06633 15.656 8.28016 15.3616 8.37313 15.0216L9.58336 10.597C9.71844 10.1034 10.1038 9.71787 10.5974 9.58293L15.022 8.3727C15.362 8.27974 15.6564 8.06591 15.8498 7.77128L18.3682 3.93729C18.6491 3.50964 19.1349 3.26204 19.6461 3.2861L24.2282 3.50225C24.5803 3.51893 24.9263 3.40641 25.2014 3.18602L28.7813 0.317813C29.1807 -0.00210741 29.7192 -0.0874196 30.1979 0.0934586L34.4889 1.71494C34.8183 1.83962 35.1822 1.83962 35.5118 1.71507Z" fill="#FFD800"/>
<path d="M34.9995 62.9156C50.417 62.9156 62.9154 50.4173 62.9154 34.9998C62.9154 19.5823 50.417 7.08398 34.9995 7.08398C19.5821 7.08398 7.08374 19.5823 7.08374 34.9998C7.08374 50.4173 19.5821 62.9156 34.9995 62.9156Z" fill="#FFB800"/>
<g filter="url(#filter0_d)">
<path d="M26.5038 49.5651H19.2214C18.5511 49.5651 18.0076 49.0216 18.0076 48.3513V28.9316C18.0076 28.2612 18.5511 27.7178 19.2214 27.7178H26.5038C27.1742 27.7178 27.7176 28.2612 27.7176 28.9316V48.3513C27.7176 49.0217 27.1742 49.5651 26.5038 49.5651Z" fill="#FFD800"/>
</g>
<g filter="url(#filter1_d)">
<path d="M53.1965 30.4391C53.0385 28.8599 51.592 27.7177 50.0048 27.7177H39.673C42.4984 25.4303 44.4169 22.3618 44.6945 19.8382C44.9004 17.967 43.6065 16.1895 41.7241 16.172C40.036 16.1564 38.662 17.5064 38.662 19.1907C38.662 20.2835 36.2902 23.5265 31.8452 24.9694C31.8387 24.9716 31.8324 24.9737 31.8258 24.9758C30.7861 25.3198 30.1453 26.3715 30.1453 27.4666V47.1373C30.1453 47.8076 30.6887 48.3511 31.359 48.3511H47.014C48.2231 48.3511 49.3439 47.5246 49.5381 46.3311C49.7854 44.8102 48.6181 43.4961 47.1439 43.4961H48.2279C49.437 43.4961 50.5578 42.6696 50.752 41.4761C50.9993 39.9552 49.832 38.6411 48.3578 38.6411H49.4418C50.651 38.6411 51.7718 37.8146 51.9659 36.6211C52.2132 35.1002 51.0459 33.7861 49.5717 33.7861H50.1786C51.957 33.7865 53.3783 32.2555 53.1965 30.4391Z" fill="white"/>
</g>
<path d="M22.8622 46.5298C23.8676 46.5298 24.6827 45.7147 24.6827 44.7092C24.6827 43.7038 23.8676 42.8887 22.8622 42.8887C21.8567 42.8887 21.0416 43.7038 21.0416 44.7092C21.0416 45.7147 21.8567 46.5298 22.8622 46.5298Z" fill="white"/>
</g>
<defs>
<filter id="filter0_d" x="16.0076" y="26.7178" width="13.71" height="25.8473" filterUnits="userSpaceOnUse" color-interpolation-filters="sRGB">
<feFlood flood-opacity="0" result="BackgroundImageFix"/>
<feColorMatrix in="SourceAlpha" type="matrix" values="0 0 0 0 0 0 0 0 0 0 0 0 0 0 0 0 0 0 127 0"/>
<feOffset dy="1"/>
<feGaussianBlur stdDeviation="1"/>
<feColorMatrix type="matrix" values="0 0 0 0 0 0 0 0 0 0 0 0 0 0 0 0 0 0 0.1 0"/>
<feBlend mode="normal" in2="BackgroundImageFix" result="effect1_dropShadow"/>
<feBlend mode="normal" in="SourceGraphic" in2="effect1_dropShadow" result="shape"/>
</filter>
<filter id="filter1_d" x="28.1453" y="15.1719" width="27.067" height="36.1792" filterUnits="userSpaceOnUse" color-interpolation-filters="sRGB">
<feFlood flood-opacity="0" result="BackgroundImageFix"/>
<feColorMatrix in="SourceAlpha" type="matrix" values="0 0 0 0 0 0 0 0 0 0 0 0 0 0 0 0 0 0 127 0"/>
<feOffset dy="1"/>
<feGaussianBlur stdDeviation="1"/>
<feColorMatrix type="matrix" values="0 0 0 0 0 0 0 0 0 0 0 0 0 0 0 0 0 0 0.1 0"/>
<feBlend mode="normal" in2="BackgroundImageFix" result="effect1_dropShadow"/>
<feBlend mode="normal" in="SourceGraphic" in2="effect1_dropShadow" result="shape"/>
</filter>
<clipPath id="clip0">
<rect width="70" height="70" fill="white"/>
</clipPath>
</defs>
</svg>
