<svg width="342" height="129" viewBox="0 0 342 129" fill="none" xmlns="http://www.w3.org/2000/svg">
<path d="M116.099 32.0668C116.512 31.8712 117.479 31.7734 119.001 31.7734H145.526C147.048 31.7734 147.939 31.8223 148.2 31.9201C148.917 32.1701 149.222 32.8603 149.113 33.9906C149.113 34.4471 148.809 34.8547 148.2 35.2134C147.939 35.3112 147.075 35.3601 145.608 35.3601H140.782C139.51 35.3601 138.875 35.9687 138.875 37.186V44.229C138.875 45.5007 139.489 46.1365 140.717 46.1365C142.597 45.9843 144.048 46.1365 145.07 46.593C146.896 47.6581 147.863 48.9298 147.972 50.4079V93.6766C147.863 96.0677 146.358 97.6165 143.456 98.323H121.61C119.164 98.1708 117.61 96.747 116.947 94.0515V50.4079C117.403 47.9624 118.882 46.5386 121.381 46.1365H124.283C125.501 46.1365 126.109 45.5224 126.109 44.2942V37.186C126.109 35.9687 125.501 35.3601 124.283 35.3601H119.083C117.55 35.3601 116.528 35.2351 116.018 34.9851C115.518 34.5721 115.289 34.083 115.333 33.5178C115.289 32.9092 115.545 32.4255 116.099 32.0668ZM154.086 34.0558C153.727 33.0885 154.211 32.3277 155.537 31.7734H175.867C178.464 31.8712 180.198 33.6265 181.067 37.0393V56.1466C180.752 59.2551 178.964 61.0865 175.704 61.6408H160.346C157.955 62.1082 156.911 63.6407 157.216 66.2383V90.0084C157.314 90.867 157.493 91.6278 157.754 92.2908C158.21 93.3125 159.129 94.0026 160.509 94.3613C162.596 94.8178 164.607 95.0949 166.541 95.1928H172.345C175.399 94.9971 177.948 94.2363 179.991 92.9103C180.241 92.7582 180.421 92.5517 180.529 92.2908C181.04 90.7148 181.344 88.5248 181.442 85.7206V81.1394C181.29 80.4764 181.415 79.8406 181.817 79.2319C182.535 78.5146 183.377 78.4385 184.344 79.0037C184.649 79.1993 184.855 79.6287 184.964 80.2917V88.1661L184.801 91.6061C184.344 95.0189 182.41 97.3393 178.997 98.5675C177.725 98.9697 176.095 99.2196 174.106 99.3175H168.84C165.264 99.1653 162.101 98.8338 159.351 98.323C156.862 97.5078 155.183 95.959 154.314 93.6766C153.901 92.5027 153.673 91.4322 153.629 90.4648V63.4016C153.933 60.4996 155.689 58.7443 158.895 58.1356H174.106C176.04 57.8748 177.16 56.8314 177.464 55.0054V38.262C177.464 36.7839 176.546 35.8166 174.709 35.3601H157.835C156.303 35.3601 155.406 35.3112 155.145 35.2134C154.439 34.8982 154.086 34.5123 154.086 34.0558ZM135.288 44.2942V37.2676C135.288 35.9959 134.701 35.3601 133.527 35.3601H131.62C130.348 35.3601 129.712 35.9687 129.712 37.186V44.229C129.712 45.5007 130.321 46.1365 131.538 46.1365H133.446C134.674 46.1365 135.288 45.5224 135.288 44.2942ZM124.283 49.7232C122.196 49.3645 120.919 50.234 120.452 52.3317V79.7536C120.452 81.0362 121.066 81.6774 122.294 81.6774H142.624C143.842 81.6774 144.45 81.0633 144.45 79.8352V76.0202C144.45 74.792 143.842 74.178 142.624 74.178C140.429 74.4388 138.668 74.1834 137.342 73.4117C136.125 72.4009 135.44 71.1293 135.288 69.5968V51.5654C135.288 50.3373 134.674 49.7232 133.446 49.7232H131.62C130.348 49.7232 129.712 50.3373 129.712 51.5654V57.9726C129.397 63.4831 128.093 68.5805 125.799 73.265C125.55 74.2323 124.713 75.0746 123.289 75.792C122.876 76.0963 122.365 76.042 121.756 75.6289C120.691 74.5638 120.767 73.5476 121.985 72.5802C123.517 70.8412 124.56 68.8033 125.115 66.4666C125.734 63.9667 126.066 61.5702 126.109 59.2769V51.5654C126.109 50.3373 125.501 49.7232 124.283 49.7232ZM144.45 68.749V52.3969C144.2 50.2558 142.978 49.3645 140.782 49.7232C139.51 49.7232 138.875 50.3373 138.875 51.5654V66.6133C138.875 67.8415 138.978 68.711 139.184 69.2218C140.152 70.4391 141.298 70.8956 142.624 70.5913C143.842 70.5913 144.45 69.9772 144.45 68.749ZM144.45 92.0626V87.0901C144.45 85.8184 143.863 85.1826 142.69 85.1826H122.376C121.093 85.1826 120.452 85.7967 120.452 87.0249V92.2908C120.919 93.8233 121.811 94.6656 123.126 94.8178H141.695C143.282 94.6113 144.2 93.6929 144.45 92.0626ZM194.354 32.0668C194.767 31.8712 195.735 31.7734 197.256 31.7734H223.782C225.303 31.7734 226.194 31.8223 226.455 31.9201C227.173 32.1701 227.477 32.8603 227.368 33.9906C227.368 34.4471 227.064 34.8547 226.455 35.2134C226.194 35.3112 225.33 35.3601 223.863 35.3601H219.037C217.766 35.3601 217.13 35.9687 217.13 37.186V44.229C217.13 45.5007 217.744 46.1365 218.972 46.1365C220.852 45.9843 222.303 46.1365 223.325 46.593C225.151 47.6581 226.118 48.9298 226.227 50.4079V93.6766C226.118 96.0677 224.613 97.6165 221.711 98.323H199.865C197.419 98.1708 195.865 96.747 195.202 94.0515V50.4079C195.659 47.9624 197.137 46.5386 199.637 46.1365H202.539C203.756 46.1365 204.365 45.5224 204.365 44.2942V37.186C204.365 35.9687 203.756 35.3601 202.539 35.3601H197.338C195.805 35.3601 194.784 35.2351 194.273 34.9851C193.773 34.5721 193.545 34.083 193.588 33.5178C193.545 32.9092 193.8 32.4255 194.354 32.0668ZM232.341 34.0558C231.982 33.0885 232.466 32.3277 233.792 31.7734H254.122C256.719 31.8712 258.453 33.6265 259.323 37.0393V56.1466C259.007 59.2551 257.219 61.0865 253.959 61.6408H238.601C236.21 62.1082 235.167 63.6407 235.471 66.2383V90.0084C235.569 90.867 235.748 91.6278 236.009 92.2908C236.466 93.3125 237.384 94.0026 238.764 94.3613C240.851 94.8178 242.862 95.0949 244.796 95.1928H250.6C253.654 94.9971 256.203 94.2363 258.247 92.9103C258.497 92.7582 258.676 92.5517 258.785 92.2908C259.295 90.7148 259.6 88.5248 259.698 85.7206V81.1394C259.545 80.4764 259.67 79.8406 260.073 79.2319C260.79 78.5146 261.632 78.4385 262.6 79.0037C262.904 79.1993 263.11 79.6287 263.219 80.2917V88.1661L263.056 91.6061C262.599 95.0189 260.665 97.3393 257.252 98.5675C255.98 98.9697 254.35 99.2196 252.361 99.3175H247.095C243.519 99.1653 240.357 98.8338 237.607 98.323C235.118 97.5078 233.439 95.959 232.569 93.6766C232.156 92.5027 231.928 91.4322 231.884 90.4648V63.4016C232.189 60.4996 233.944 58.7443 237.15 58.1356H252.361C254.296 57.8748 255.415 56.8314 255.72 55.0054V38.262C255.72 36.7839 254.801 35.8166 252.964 35.3601H236.091C234.558 35.3601 233.661 35.3112 233.401 35.2134C232.694 34.8982 232.341 34.5123 232.341 34.0558ZM213.543 44.2942V37.2676C213.543 35.9959 212.956 35.3601 211.782 35.3601H209.875C208.603 35.3601 207.968 35.9687 207.968 37.186V44.229C207.968 45.5007 208.576 46.1365 209.793 46.1365H211.701C212.929 46.1365 213.543 45.5224 213.543 44.2942ZM202.539 49.7232C200.452 49.3645 199.175 50.234 198.707 52.3317V79.7536C198.707 81.0362 199.321 81.6774 200.55 81.6774H220.88C222.097 81.6774 222.706 81.0633 222.706 79.8352V76.0202C222.706 74.792 222.097 74.178 220.88 74.178C218.684 74.4388 216.923 74.1834 215.597 73.4117C214.38 72.4009 213.695 71.1293 213.543 69.5968V51.5654C213.543 50.3373 212.929 49.7232 211.701 49.7232H209.875C208.603 49.7232 207.968 50.3373 207.968 51.5654V57.9726C207.652 63.4831 206.348 68.5805 204.055 73.265C203.805 74.2323 202.968 75.0746 201.544 75.792C201.131 76.0963 200.62 76.042 200.012 75.6289C198.946 74.5638 199.023 73.5476 200.24 72.5802C201.772 70.8412 202.816 68.8033 203.37 66.4666C203.99 63.9667 204.321 61.5702 204.365 59.2769V51.5654C204.365 50.3373 203.756 49.7232 202.539 49.7232ZM222.706 68.749V52.3969C222.456 50.2558 221.233 49.3645 219.037 49.7232C217.766 49.7232 217.13 50.3373 217.13 51.5654V66.6133C217.13 67.8415 217.233 68.711 217.44 69.2218C218.407 70.4391 219.554 70.8956 220.88 70.5913C222.097 70.5913 222.706 69.9772 222.706 68.749ZM222.706 92.0626V87.0901C222.706 85.8184 222.119 85.1826 220.945 85.1826H200.631C199.349 85.1826 198.707 85.7967 198.707 87.0249V92.2908C199.175 93.8233 200.066 94.6656 201.381 94.8178H219.95C221.537 94.6113 222.456 93.6929 222.706 92.0626ZM311.656 29.2464C312.221 28.3334 313.167 28.3062 314.493 29.1649C314.851 30.1322 314.927 31.8386 314.721 34.2841C314.666 35.5122 315.253 36.1263 316.482 36.1263H336.502C337.621 36.1807 338.638 36.4578 339.551 36.9578C340.833 37.9251 341.447 39.2511 341.393 40.9358C341.697 46.7506 340.067 53.424 336.502 60.9561C336.502 61.4126 336.121 61.8201 335.361 62.1788C334.893 62.3853 334.382 62.2603 333.828 61.8038C333.372 61.3908 333.192 60.7767 333.29 59.9616C333.388 59.2008 333.747 58.1845 334.366 56.9129C336.301 52.5762 337.496 48.5004 337.953 44.6855C338.159 43.0008 338.083 41.6477 337.725 40.626C337.572 40.3217 337.366 40.0934 337.105 39.9413C336.703 39.7348 335.888 39.6315 334.66 39.6315H326.329C325.057 39.6315 324.421 40.2456 324.421 41.4738C324.476 42.8541 324.427 44.0497 324.274 45.0605V50.7992C324.633 59.7659 326.16 68.0697 328.856 75.7105C331.66 83.1991 335.458 89.8236 340.252 95.584C341.219 96.5948 341.724 97.3557 341.768 97.8665C341.974 98.5838 341.746 99.1707 341.083 99.6272C340.214 100.236 339.295 99.9805 338.328 98.861C330.328 88.7204 325.209 78.1016 322.97 67.0046C322.612 65.722 322.28 65.7438 321.976 67.0698C320.248 75.8409 317.394 83.8675 313.417 91.1496C311.786 94.2037 310.031 96.5948 308.151 98.323C306.52 99.399 305.602 99.9098 305.395 99.8555C303.863 98.9425 303.662 97.8991 304.792 96.7253C307.488 93.9755 309.65 91.0191 311.281 87.8563C313.574 83.5849 315.308 79.5091 316.482 75.6289C319.134 67.173 320.584 57.4183 320.834 46.3647V41.4738C320.834 40.2456 320.22 39.6315 318.992 39.6315H316.025C314.797 39.6315 314.031 40.2456 313.726 41.4738C312.607 47.8429 310.39 53.3425 307.075 57.9726C306.259 58.9943 305.395 58.9943 304.482 57.9726C303.765 57.0596 303.814 56.1684 304.629 55.2989C309.009 48.1689 311.226 40.501 311.281 32.2951C311.281 30.7735 311.406 29.7572 311.656 29.2464ZM289.418 28.9366C290.494 28.578 291.771 29.0888 293.249 30.4691C296.304 32.8603 299.358 35.2025 302.412 37.4958C304.194 38.724 305.086 39.7674 305.086 40.626C304.738 42.2129 303.825 42.6965 302.347 42.077L291.635 33.2896C291.081 32.6809 290.445 32.5559 289.728 32.9146C289.424 33.0668 288.663 33.7569 287.446 34.9851C283.62 38.7022 279.517 41.9629 275.137 44.767C273.756 45.5822 272.659 45.9626 271.843 45.9082C271.235 45.6039 270.882 45.2235 270.784 44.767C270.425 43.8975 270.68 43.1802 271.55 42.615C276.126 40.3217 281.066 36.6806 286.37 31.6919C287.739 30.1594 288.755 29.241 289.418 28.9366ZM289.581 40.1043C290.342 39.7456 291.081 40.0228 291.799 40.9358C291.951 41.1966 292.027 42.0879 292.027 43.6095V46.055C292.027 47.3266 292.635 47.9624 293.853 47.9624H297.602C300.146 48.1689 301.651 49.6471 302.118 52.3969V73.3465C301.955 75.6398 300.553 77.1397 297.912 77.8462H281.935C280.663 77.8462 280.028 78.4603 280.028 79.6884V92.1441C280.028 93.3614 280.636 93.845 281.854 93.5951C286.701 92.4756 291.136 91.1496 295.157 89.6171C296.483 89.1062 296.918 88.2911 296.461 87.1716L294.929 82.9654C294.266 81.8459 294.749 81.1068 296.38 80.7481C296.988 80.7481 297.472 81.0036 297.831 81.5144C299.917 85.8945 301.575 89.9703 302.803 93.7418C303.205 95.0134 303.385 96.1329 303.341 97.1002C303.026 98.2741 302.363 98.7632 301.352 98.5675C301.048 98.4588 300.537 97.5893 299.82 95.959L299.053 93.97C298.597 92.7527 297.755 92.3723 296.526 92.8288C289.396 95.5243 281.576 97.535 273.066 98.861C271.642 99.1218 270.882 98.4588 270.784 96.872C270.936 95.8068 272.208 95.1493 274.599 94.8993C275.87 94.7906 276.506 94.1494 276.506 92.9755V52.3317C276.713 50.0384 278.115 48.582 280.712 47.9624H286.598C287.815 47.9624 288.424 47.3538 288.424 46.1365V41.3923C288.532 40.8379 288.918 40.4086 289.581 40.1043ZM295.01 51.5654H282.163C281.142 51.6089 280.43 52.2176 280.028 53.3914V59.5866C280.028 60.8583 280.636 61.4941 281.854 61.4941H296.689C297.907 61.4941 298.515 60.8854 298.515 59.6681V53.3914C298.472 52.7284 298.195 52.2447 297.684 51.9404C297.119 51.6904 296.228 51.5654 295.01 51.5654ZM298.515 72.189V66.8415C298.515 65.6242 297.907 65.0156 296.689 65.0156H281.935C280.663 65.0156 280.028 65.6242 280.028 66.8415V72.4172C280.028 73.6997 280.636 74.341 281.854 74.341H296.233C297.396 74.2866 298.157 73.5693 298.515 72.189Z" fill="#070150"/>
<path d="M25.1389 46.7647C25.1389 49.1562 23.2009 51.0943 20.8093 51.0943C18.4163 51.0943 16.4782 49.1562 16.4782 46.7647C16.4782 44.3709 18.4163 42.4336 20.8093 42.4336C23.2001 42.4336 25.1389 44.3724 25.1389 46.7647ZM56.4363 16.1921C53.74 16.1921 51.5536 18.3769 51.5536 21.074C51.5536 23.7711 53.74 25.956 56.4363 25.956C59.1312 25.956 61.3161 23.7711 61.3161 21.074C61.3161 18.3769 59.1312 16.1921 56.4363 16.1921ZM74.4989 63.6118V99.7607H7.59229V49.6736C9.86711 48.2902 12.223 47.4352 14.6517 47.0011C14.7959 50.2765 17.4952 52.8881 20.8086 52.8881C23.8662 52.8881 26.4042 50.6586 26.8882 47.7356C34.2449 49.548 42.0284 53.3208 50.0059 56.7397C49.3524 57.831 48.9792 59.1075 48.9792 60.4716C48.9792 64.4979 52.2435 67.763 56.2698 67.763C59.8746 67.763 62.8661 65.1462 63.4556 61.7101C67.1288 62.7531 70.8183 63.4594 74.4989 63.6118ZM28.7021 81.9501C28.7021 77.9231 25.437 74.6581 21.4107 74.6581C17.3844 74.6581 14.1187 77.9231 14.1187 81.9501C14.1187 85.9757 17.3844 89.2415 21.4107 89.2415C25.437 89.2415 28.7021 85.9757 28.7021 81.9501ZM32.8525 66.6136C35.5496 66.6136 37.7352 64.4295 37.7352 61.7317C37.7352 59.0361 35.5496 56.8505 32.8525 56.8505C30.1562 56.8505 27.9698 59.0361 27.9698 61.7317C27.9691 64.4288 30.1562 66.6136 32.8525 66.6136ZM43.2758 89.6117C43.2758 86.9146 41.0909 84.7297 38.3946 84.7297C35.6983 84.7297 33.5127 86.9146 33.5127 89.6117C33.5127 92.308 35.6983 94.4936 38.3946 94.4936C41.0909 94.4936 43.2758 92.308 43.2758 89.6117ZM53.3728 75.7858C53.3728 72.3825 50.614 69.6222 47.2092 69.6222C43.8036 69.6222 41.0448 72.3825 41.0448 75.7858C41.0448 79.1906 43.8036 81.9501 47.2092 81.9501C50.614 81.9501 53.3728 79.1906 53.3728 75.7858ZM67.3904 90.9862C67.3904 87.5822 64.6302 84.8227 61.2254 84.8227C57.8206 84.8227 55.0618 87.5822 55.0618 90.9862C55.0618 94.3903 57.8206 97.1513 61.2254 97.1513C64.6302 97.1513 67.3904 94.3903 67.3904 90.9862ZM44.9485 31.8229C40.9229 31.8229 37.6579 35.0887 37.6579 39.115C37.6579 43.1421 40.9229 46.4064 44.9485 46.4064C48.9755 46.4064 52.242 43.1421 52.242 39.115C52.242 35.088 48.9755 31.8229 44.9485 31.8229ZM56.4363 54.5972C53.3363 54.5972 50.8214 57.1114 50.8214 60.2107C50.8214 63.3114 53.3363 65.8241 56.4363 65.8241C59.5349 65.8241 62.0491 63.3114 62.0491 60.2107C62.0491 57.1107 59.5349 54.5972 56.4363 54.5972ZM31.8541 21.8226C28.4501 21.8226 25.6913 24.5829 25.6913 27.987C25.6913 31.3918 28.4501 34.1513 31.8541 34.1513C35.2589 34.1513 38.0184 31.3918 38.0184 27.987C38.0184 24.5829 35.2589 21.8226 31.8541 21.8226Z" fill="#F39519"/>
<path d="M79.331 0C77.8256 0 76.7291 1.22142 76.7291 2.72607V3.40778V99.1987C76.7291 100.498 75.8311 102.571 74.5309 102.571H53.1475H28.9437H7.56031C6.26009 102.571 5.36205 100.498 5.36205 99.1987V3.40778V2.72607C5.36205 1.22142 4.26553 0 2.76013 0C1.25473 0 0.158203 1.22142 0.158203 2.72607V3.40778V115.663C0.158203 122.161 5.82668 128.591 12.3255 128.591H28.9437H53.1475H69.7656C76.2645 128.591 81.933 122.163 81.933 115.663V3.40778V2.72607C81.933 1.22142 80.8364 0 79.331 0ZM41.0456 123.387C36.9405 123.387 33.6115 120.058 33.6115 115.953C33.6115 111.848 36.9405 108.519 41.0456 108.519C45.1499 108.519 48.4797 111.848 48.4797 115.953C48.4797 120.058 45.1499 123.387 41.0456 123.387Z" fill="#070150"/>
</svg>
