<svg width="597" height="590" viewBox="0 0 597 590" fill="none" xmlns="http://www.w3.org/2000/svg">
<path d="M148.652 32.0584C153.601 36.9605 158.817 41.5742 164.617 45.4315C194.204 65.1107 282.235 112.462 421.855 93.1099C596.303 68.9305 613.627 232.347 545.609 291.077C501.877 328.836 410.309 377.859 421.855 503.438C427.983 570.09 388.382 619.05 332.569 569.217C276.756 519.385 245.46 473.86 143.415 483.439C41.3696 493.019 -30.738 447.799 14.4334 367.009C59.6048 286.218 113.611 234.084 44.6786 144.093C-22.34 56.6056 90.546 -25.4875 148.652 32.0584Z" fill="#D9E9FE"/>
<path d="M348.587 113.726C347.293 112.423 346.553 110.671 346.521 108.835C346.489 107 347.168 105.223 348.416 103.876L394.446 54.1948C395.098 53.4911 395.885 52.9265 396.761 52.5349C397.637 52.1434 398.583 51.933 399.542 51.9164C400.501 51.8997 401.453 52.0772 402.342 52.4382C403.231 52.7991 404.038 53.3361 404.714 54.0167L408.687 58.0182C409.363 58.6989 409.895 59.5094 410.249 60.4007C410.604 61.2921 410.775 62.2459 410.752 63.205C410.728 64.1641 410.511 65.1085 410.113 65.9815C409.716 66.8546 409.146 67.6381 408.437 68.2852L358.435 113.965C357.08 115.204 355.298 115.87 353.463 115.826C351.627 115.781 349.88 115.029 348.587 113.726Z" fill="#57C4E5"/>
<path d="M319.451 96.7909C318.351 96.3031 317.481 95.4089 317.025 94.2952C316.568 93.1814 316.56 91.9343 317.001 90.8145L333.291 49.5011C333.522 48.9159 333.869 48.3835 334.311 47.9357C334.752 47.488 335.28 47.1342 335.862 46.8956C336.444 46.6571 337.069 46.5387 337.697 46.5476C338.326 46.5565 338.947 46.6924 339.522 46.9473L342.903 48.4458C343.478 48.7006 343.995 49.0692 344.424 49.5292C344.853 49.9893 345.185 50.5313 345.399 51.1228C345.613 51.7142 345.705 52.3429 345.67 52.9709C345.635 53.599 345.474 54.2134 345.195 54.7774L325.526 94.5924C324.993 95.6719 324.063 96.5035 322.931 96.9132C321.799 97.3229 320.552 97.2791 319.451 96.7909Z" fill="#57C4E5"/>
<path d="M289.809 103.543C286.055 104.219 282.289 100.998 281.27 96.2415L263.203 11.7804C262.125 6.73288 264.542 1.9323 268.525 1.2145L274.074 0.215551C278.057 -0.501436 281.998 3.15601 282.746 8.26152L295.265 93.7212C295.969 98.5359 293.563 102.868 289.809 103.543Z" fill="#57C4E5"/>
<path d="M581.822 183.03L502.143 172.759C500.801 172.616 499.448 172.885 498.263 173.531C497.079 174.176 496.119 175.168 495.513 176.373L474.325 218.208L385.635 395.586C384.692 397.459 383.113 398.936 381.18 399.75C379.248 400.565 377.088 400.664 375.088 400.03L134.356 323.19C133.692 322.978 132.987 322.926 132.299 323.04C131.612 323.154 130.961 323.429 130.4 323.843C129.84 324.257 129.386 324.799 129.075 325.423C128.765 326.047 128.607 326.736 128.615 327.433L128.725 337.429C128.739 338.819 129.19 340.17 130.016 341.288C130.841 342.406 131.999 343.235 133.323 343.657L388.024 424.954C390.864 425.86 393.413 427.501 395.414 429.71C397.415 431.919 398.797 434.617 399.419 437.532L399.504 437.93C401.719 450.1 389.727 460.09 377.908 456.503L98.6197 367.242C97.1871 366.786 95.953 365.855 95.1217 364.603C94.2904 363.35 93.9117 361.851 94.0483 360.354L115.906 121.667C116.016 120.436 116.383 119.242 116.984 118.163C117.586 117.083 118.407 116.142 119.396 115.401C120.384 114.66 121.517 114.135 122.722 113.86C123.927 113.585 125.175 113.566 126.388 113.805L460.97 179.258L482.52 136.43C483.142 135.22 484.121 134.229 485.324 133.593C486.527 132.956 487.896 132.704 489.247 132.87L586.82 145.365C587.685 145.474 588.521 145.753 589.277 146.187C590.034 146.621 590.698 147.2 591.229 147.892C591.76 148.584 592.149 149.374 592.373 150.217C592.597 151.061 592.651 151.94 592.533 152.804L589.206 177.346C588.975 179.076 588.069 180.645 586.686 181.71C585.303 182.775 583.554 183.25 581.822 183.03Z" fill="#4267B2"/>
<path d="M129.398 282.323L156.662 291.024L182.814 158.412L140.959 151.985L129.398 282.323Z" fill="#DEE9FF"/>
<path d="M343.31 350.6L370.573 359.302L441.079 210.805L411.049 203.531L343.31 350.6Z" fill="#DEE9FF"/>
<path d="M238.451 317.131L263.617 325.164L317.524 185.234L276.339 176.71L238.451 317.131Z" fill="#DEE9FF"/>
<path d="M206.551 163.678L247.736 172.201L211.187 308.428L183.924 299.726L206.551 163.678Z" fill="#DEE9FF"/>
<path d="M385.214 197.595L344.029 189.071L292.978 334.534L318.144 342.567L385.214 197.595Z" fill="#DEE9FF"/>
<path d="M134.659 453.417C152.288 453.417 166.579 439.126 166.579 421.496C166.579 403.867 152.288 389.576 134.659 389.576C117.03 389.576 102.738 403.867 102.738 421.496C102.738 439.126 117.03 453.417 134.659 453.417Z" fill="#5C9BEF"/>
<path d="M333.891 517.008C351.52 517.008 365.811 502.717 365.811 485.087C365.811 467.458 351.52 453.167 333.891 453.167C316.261 453.167 301.97 467.458 301.97 485.087C301.97 502.717 316.261 517.008 333.891 517.008Z" fill="#5C9BEF"/>
<path d="M596.156 144.044L512.064 133.516C511.598 133.458 511.172 133.789 511.114 134.255L506.017 174.968C505.959 175.434 506.289 175.859 506.755 175.918L590.848 186.446C591.314 186.504 591.739 186.173 591.797 185.707L596.894 144.994C596.953 144.528 596.622 144.103 596.156 144.044Z" fill="#5C9BEF"/>
</svg>
